<svg width="112" height="112" viewBox="0 0 112 112" fill="none" xmlns="http://www.w3.org/2000/svg">
<path fill-rule="evenodd" clip-rule="evenodd" d="M0.625261 0H111.375C111.721 0 112 0.278411 112 0.624239V111.376C112 111.722 111.721 112 111.375 112H0.625261C0.278867 112 0 111.722 0 111.376V0.624239C0 0.278411 0.278867 0 0.625261 0Z" fill="#EB1C2D"/>
<path d="M35.4319 19.4449L33.3284 13.7085V19.4449H31.9731V10.0017H33.2578L35.3472 15.724V10.0017H36.7024V19.4449H35.4319Z" fill="white"/>
<path d="M38.1628 10.8887C38.3793 10.5881 38.6522 10.3531 38.9816 10.184C39.3204 10.0055 39.6687 9.91623 40.0263 9.91623C40.3745 9.91623 40.6992 9.9867 41.0004 10.1276C41.311 10.2686 41.5698 10.4612 41.7768 10.7055C41.9839 10.9498 42.1251 11.2035 42.2004 11.4666C42.2756 11.7203 42.3133 11.9975 42.3133 12.2982V17.1043C42.3133 17.3862 42.2851 17.6352 42.2286 17.8513C42.1816 18.0674 42.0686 18.307 41.8898 18.5701C41.7204 18.8332 41.471 19.0587 41.1416 19.2466C40.8216 19.4346 40.4639 19.5285 40.0687 19.5285C39.8428 19.5285 39.6263 19.5003 39.4193 19.444C39.2122 19.3782 39.0193 19.2936 38.8404 19.1903C38.6616 19.0869 38.5016 18.9695 38.3605 18.8379C38.2287 18.7064 38.1252 18.5701 38.0499 18.4292C37.9087 18.1379 37.824 17.903 37.7958 17.7245C37.7675 17.5459 37.7534 17.3392 37.7534 17.1043V12.2982C37.7534 12.0163 37.7817 11.7673 37.8381 11.5512C37.904 11.3257 38.0122 11.1049 38.1628 10.8887ZM40.7886 11.6357C40.6098 11.3726 40.3651 11.2411 40.0545 11.2411C39.8945 11.2411 39.7345 11.2881 39.5745 11.382C39.424 11.4666 39.3157 11.5653 39.2498 11.678C39.1934 11.7908 39.1557 11.9035 39.1369 12.0163C39.1181 12.129 39.1087 12.223 39.1087 12.2982V17.1043C39.1087 17.1513 39.1087 17.2029 39.1087 17.2593C39.1087 17.3063 39.1134 17.358 39.1228 17.4144C39.1322 17.5083 39.2075 17.6634 39.3487 17.8795C39.4898 18.0768 39.7251 18.1755 40.0545 18.1755C40.2239 18.1755 40.3745 18.1379 40.5063 18.0627C40.6475 17.9782 40.7463 17.8842 40.8028 17.7808C40.8686 17.6681 40.911 17.5647 40.9298 17.4708C40.9486 17.3768 40.958 17.2546 40.958 17.1043V12.2982C40.958 12.1102 40.9486 11.9787 40.9298 11.9035C40.9204 11.8284 40.8733 11.7391 40.7886 11.6357H40.7886Z" fill="white"/>
<path d="M31.9731 32.4662V23.023H34.1896H34.2178C34.5001 23.023 34.7684 23.0841 35.0225 23.2063C35.2766 23.319 35.5025 23.4694 35.7001 23.6573C35.8977 23.8452 36.053 24.0613 36.166 24.3056C36.2883 24.5405 36.3542 24.7848 36.3636 25.0385V26.4057V26.5466C36.3636 26.8567 36.3024 27.148 36.1801 27.4205C36.0672 27.6835 35.9119 27.9138 35.7142 28.1111C35.5166 28.3084 35.2813 28.4634 35.0084 28.5762C34.7448 28.6889 34.4625 28.7453 34.1613 28.7453H34.0343H33.3284V32.4662H31.9731ZM34.839 27.195C34.9237 27.1104 34.9754 27.0211 34.9942 26.9272C35.0225 26.8332 35.0366 26.7157 35.0366 26.5748V25.1795C35.0366 24.9164 34.9566 24.7003 34.7966 24.5311C34.6366 24.3526 34.4201 24.2633 34.1472 24.2633H33.3284V27.4627H34.0343C34.2225 27.4627 34.3731 27.4486 34.486 27.4205C34.6084 27.3829 34.726 27.3077 34.839 27.195Z" fill="white"/>
<path d="M37.9533 23.9112C38.1698 23.6106 38.4427 23.3756 38.7721 23.2065C39.111 23.028 39.4592 22.9387 39.8168 22.9387C40.1651 22.9387 40.4898 23.0092 40.7909 23.1501C41.1015 23.2911 41.3603 23.4837 41.5674 23.728C41.7744 23.9723 41.9156 24.226 41.9909 24.4891C42.0662 24.7428 42.1038 25.02 42.1038 25.3207V30.1268C42.1038 30.4087 42.0756 30.6577 42.0191 30.8738C41.9721 31.0899 41.8591 31.3295 41.6803 31.5926C41.5109 31.8557 41.2615 32.0812 40.9321 32.2691C40.6121 32.4571 40.2545 32.551 39.8592 32.551C39.6333 32.551 39.4168 32.5228 39.2098 32.4665C39.0027 32.4007 38.8098 32.3161 38.631 32.2128C38.4522 32.1094 38.2922 31.9919 38.151 31.8604C38.0192 31.7289 37.9157 31.5926 37.8404 31.4517C37.6992 31.1604 37.6145 30.9255 37.5863 30.7469C37.5581 30.5684 37.5439 30.3617 37.5439 30.1268V25.3207C37.5439 25.0388 37.5722 24.7898 37.6286 24.5737C37.6945 24.3482 37.8028 24.1274 37.9533 23.9112ZM40.5792 24.6582C40.4003 24.3951 40.1556 24.2636 39.8451 24.2636C39.6851 24.2636 39.5251 24.3106 39.3651 24.4045C39.2145 24.4891 39.1063 24.5878 39.0404 24.7005C38.9839 24.8133 38.9463 24.926 38.9274 25.0388C38.9086 25.1515 38.8992 25.2455 38.8992 25.3207V30.1268C38.8992 30.1738 38.8992 30.2254 38.8992 30.2818C38.8992 30.3288 38.9039 30.3805 38.9133 30.4369C38.9227 30.5309 38.998 30.6859 39.1392 30.902C39.2804 31.0993 39.5157 31.198 39.8451 31.198C40.0145 31.198 40.1651 31.1604 40.2968 31.0852C40.438 31.0006 40.5368 30.9067 40.5933 30.8033C40.6592 30.6906 40.7015 30.5872 40.7203 30.4933C40.7392 30.3993 40.7486 30.2772 40.7486 30.1268V25.3207C40.7486 25.1327 40.7392 25.0012 40.7203 24.926C40.7109 24.8509 40.6639 24.7616 40.5792 24.6582Z" fill="white"/>
<path d="M44.7456 32.4662L42.8115 23.023H44.2232L45.3244 29.5769L46.4397 23.023H47.8796L45.9032 32.4662H44.7456Z" fill="white"/>
<path d="M52.7518 31.1132V32.4662H48.7002V23.023H52.7518V24.2633H50.0413V27.054H52.413V28.3366H50.0413V31.1132H52.7518Z" fill="white"/>
<path d="M53.3921 32.4662V23.023H55.7638C56.385 23.023 56.9073 23.2392 57.3308 23.6714C57.7637 24.1036 57.9802 24.6345 57.9802 25.264V26.1379C57.9802 27.0117 57.6085 27.6788 56.8649 28.1393L58.3049 32.4662H56.8649L55.5944 28.4212H54.7473V32.4662H53.3921ZM56.3991 26.9272C56.4838 26.8238 56.5402 26.7064 56.5685 26.5748C56.6061 26.4433 56.625 26.2976 56.625 26.1379V25.264C56.625 24.9728 56.545 24.7378 56.385 24.5593C56.225 24.3714 55.9991 24.2774 55.7073 24.2774H54.7474V27.2231H55.6932C55.9756 27.2231 56.2109 27.1245 56.3991 26.9272H56.3991Z" fill="white"/>
<path d="M59.9107 32.4662V24.2774H58.3154V23.023H62.8753V24.2774H61.2518V32.4662H59.9107Z" fill="white"/>
<path d="M64.8587 32.4662V28.4071L63.0234 23.023H64.4352L65.5363 26.7158L66.6516 23.023H68.0774L66.1998 28.4071V32.4662H64.8587Z" fill="white"/>
<path d="M16.052 32.0364V12.8128L12.8091 15.241V11.801L16.052 9.44025H19.2612V32.0364H16.052Z" fill="white"/>
<path fill-rule="evenodd" clip-rule="evenodd" d="M24.1879 53.5349C24.1879 54.3596 23.8597 55.1505 23.2756 55.7337C22.6915 56.3168 21.8992 56.6445 21.0732 56.6445C20.2471 56.6445 19.4549 56.3168 18.8708 55.7337C18.2867 55.1505 17.9585 54.3596 17.9585 53.5349C17.9585 53.1265 18.0391 52.7221 18.1956 52.3449C18.3521 51.9676 18.5815 51.6248 18.8708 51.3361C19.16 51.0473 19.5033 50.8182 19.8812 50.662C20.2591 50.5057 20.6642 50.4253 21.0732 50.4253C21.4822 50.4253 21.8872 50.5057 22.2651 50.662C22.643 50.8182 22.9864 51.0473 23.2756 51.3361C23.5648 51.6248 23.7942 51.9676 23.9508 52.3449C24.1073 52.7221 24.1879 53.1265 24.1879 53.5349Z" fill="white"/>
<path fill-rule="evenodd" clip-rule="evenodd" d="M50.5643 55.2565C50.5643 56.0813 50.2362 56.8722 49.652 57.4554C49.0679 58.0385 48.2757 58.3661 47.4496 58.3661C46.6236 58.3661 45.8313 58.0385 45.2472 57.4554C44.6631 56.8722 44.335 56.0813 44.335 55.2565C44.335 54.4318 44.6631 53.6409 45.2472 53.0577C45.8313 52.4746 46.6236 52.1469 47.4496 52.1469C47.8587 52.1469 48.2637 52.2274 48.6416 52.3837C49.0195 52.5399 49.3628 52.769 49.652 53.0577C49.9413 53.3465 50.1707 53.6893 50.3272 54.0665C50.4838 54.4438 50.5643 54.8482 50.5643 55.2565Z" fill="white"/>
<path fill-rule="evenodd" clip-rule="evenodd" d="M68.0311 55.2565C68.0311 56.0813 67.703 56.8722 67.1188 57.4554C66.5347 58.0385 65.7425 58.3661 64.9164 58.3661C64.0904 58.3661 63.2981 58.0385 62.714 57.4554C62.1299 56.8722 61.8018 56.0813 61.8018 55.2565C61.8018 54.4318 62.1299 53.6409 62.714 53.0577C63.2981 52.4746 64.0904 52.1469 64.9164 52.1469C65.3255 52.1469 65.7305 52.2274 66.1084 52.3837C66.4863 52.5399 66.8296 52.769 67.1188 53.0577C67.4081 53.3465 67.6375 53.6893 67.794 54.0665C67.9506 54.4438 68.0311 54.8482 68.0311 55.2565Z" fill="white"/>
<path fill-rule="evenodd" clip-rule="evenodd" d="M92.495 53.6066C92.495 54.4313 92.1668 55.2223 91.5827 55.8054C90.9986 56.3886 90.2064 56.7162 89.3803 56.7162C88.5542 56.7162 87.762 56.3886 87.1779 55.8054C86.5938 55.2223 86.2656 54.4313 86.2656 53.6066C86.2656 53.1983 86.3462 52.7939 86.5027 52.4166C86.6592 52.0393 86.8887 51.6965 87.1779 51.4078C87.4671 51.119 87.8105 50.89 88.1884 50.7337C88.5663 50.5775 88.9713 50.497 89.3803 50.497C90.2064 50.497 90.9986 50.8246 91.5827 51.4078C92.1668 51.991 92.495 52.7819 92.495 53.6066Z" fill="white"/>
<path fill-rule="evenodd" clip-rule="evenodd" d="M36.0714 69.1786C36.0714 69.8384 35.8089 70.4711 35.3416 70.9377C34.8743 71.4042 34.2405 71.6663 33.5796 71.6663C32.9188 71.6663 32.285 71.4042 31.8177 70.9377C31.3504 70.4711 31.0879 69.8384 31.0879 69.1786C31.0879 68.8519 31.1523 68.5284 31.2776 68.2266C31.4028 67.9248 31.5863 67.6506 31.8177 67.4196C32.0491 67.1886 32.3238 67.0053 32.6261 66.8803C32.9284 66.7553 33.2524 66.6909 33.5796 66.6909C33.9069 66.6909 34.2309 66.7553 34.5332 66.8803C34.8355 67.0053 35.1102 67.1886 35.3416 67.4196C35.5729 67.6506 35.7565 67.9248 35.8817 68.2266C36.0069 68.5284 36.0714 68.8519 36.0714 69.1786Z" fill="white"/>
<path fill-rule="evenodd" clip-rule="evenodd" d="M80.1876 69.1786C80.1876 69.5053 80.1231 69.8288 79.9979 70.1306C79.8727 70.4324 79.6892 70.7067 79.4578 70.9377C79.2264 71.1687 78.9517 71.3519 78.6494 71.4769C78.3471 71.6019 78.0231 71.6663 77.6958 71.6663C77.035 71.6663 76.4012 71.4042 75.9339 70.9377C75.4666 70.4711 75.2041 69.8384 75.2041 69.1786C75.2041 68.8519 75.2686 68.5284 75.3938 68.2266C75.519 67.9248 75.7025 67.6506 75.9339 67.4196C76.1653 67.1886 76.44 67.0053 76.7423 66.8803C77.0446 66.7553 77.3686 66.6909 77.6958 66.6909C78.0231 66.6909 78.3471 66.7553 78.6494 66.8803C78.9517 67.0053 79.2264 67.1886 79.4578 67.4196C79.6892 67.6506 79.8727 67.9248 79.9979 68.2266C80.1231 68.5284 80.1876 68.8519 80.1876 69.1786Z" fill="white"/>
<path fill-rule="evenodd" clip-rule="evenodd" d="M17.1839 57.9126C15.1038 57.9126 13.6861 59.5343 13.6861 61.4047V70.542C13.6861 71.1698 13.9569 71.571 14.3138 71.7645L11.4822 85.8981C11.3161 86.7272 12.427 86.9083 12.5738 86.1046L15.1779 71.8471C15.6411 71.7044 16.0332 71.2673 16.0332 70.542V63.0313C16.0332 62.1587 17.1351 62.2252 17.1351 63.0313V85.3245C17.1351 87.5115 20.3464 87.5018 20.3464 85.3245V72.5992C20.3464 71.8709 21.5916 71.8948 21.5916 72.5992V85.3245C21.5916 87.5018 24.8028 87.5115 24.8028 85.3245V63.0313C24.8028 62.2252 25.9048 62.1587 25.9048 63.0313V70.542C25.9048 72.3187 28.2519 72.3933 28.2519 70.542V61.4047C28.2519 59.5343 26.8342 57.9126 24.7541 57.9126H17.1839Z" fill="white"/>
<path fill-rule="evenodd" clip-rule="evenodd" d="M46.8974 76.4017V85.4107C46.8974 87.6418 43.779 87.605 43.779 85.4107V76.4017H40.7901L44.1775 64.3995C44.3306 63.8571 43.4379 63.4551 43.2144 64.1675L41.1554 70.7322C40.6686 72.2845 38.5812 71.7337 39.1297 69.9365L41.72 61.4487C42.0158 60.4795 43.006 59.7247 44.0779 59.7247H50.6884C51.7603 59.7247 52.7505 60.4795 53.0463 61.4487L55.6366 69.9365C56.1851 71.7337 54.0977 72.2845 53.6108 70.7322L51.5518 64.1675C51.3284 63.4551 50.4357 63.8571 50.5888 64.3995L53.9761 76.4017H50.9873V85.4107C50.9873 87.605 47.8688 87.6418 47.8688 85.4107V76.4017H46.8974Z" fill="white"/>
<path fill-rule="evenodd" clip-rule="evenodd" d="M64.4624 76.4017V85.4107C64.4624 87.6418 61.3439 87.605 61.3439 85.4107V76.4017H58.3551L61.7424 64.3995C61.8955 63.8571 61.0028 63.4551 60.7794 64.1675L58.7204 70.7322C58.2335 72.2845 56.1461 71.7337 56.6946 69.9365L59.2849 61.4487C59.5807 60.4795 60.5709 59.7247 61.6428 59.7247H68.2533C69.3252 59.7247 70.3154 60.4795 70.6112 61.4487L73.2015 69.9365C73.75 71.7337 71.6626 72.2845 71.1758 70.7322L69.1168 64.1675C68.8933 63.4551 68.0006 63.8571 68.1537 64.3995L71.5411 76.4017H68.5522V85.4107C68.5522 87.605 65.4338 87.6418 65.4338 85.4107V76.4017H64.4624Z" fill="white"/>
<path fill-rule="evenodd" clip-rule="evenodd" d="M78.2941 81.8723V85.6188C78.2941 87.2097 80.4859 87.4088 80.4859 85.6188V76.6834C80.4859 76.2099 80.9942 76.1958 81.1667 76.6503L82.3148 79.6744C82.7057 80.7043 83.9081 80.2657 83.4771 79.2102L81.1999 73.6332C81.0024 73.1494 80.5199 72.7546 79.8716 72.7546H75.6096C74.9612 72.7546 74.4788 73.1494 74.2812 73.6332L72.0041 79.2102C71.5731 80.2657 72.7754 80.7043 73.1664 79.6744L74.3144 76.6503C74.487 76.1958 74.9952 76.2099 74.9952 76.6834V85.6188C74.9952 87.4088 77.187 87.2097 77.187 85.6188V81.8723C77.187 81.2077 78.2941 81.1605 78.2941 81.8723Z" fill="white"/>
<path fill-rule="evenodd" clip-rule="evenodd" d="M33.1284 82.0999V85.9273C33.1284 87.3022 31.123 87.5344 31.123 85.9273V81.7171H29.737L30.9461 77.3303C31.154 76.5762 30.9942 75.8063 30.6217 75.1516L28.5279 71.4714C27.9003 70.3683 29.4276 69.7542 29.914 70.5292L31.4474 72.9729C31.6741 73.334 31.9553 73.2968 32.3026 73.2968H35.1618C35.5091 73.2968 35.7903 73.334 36.017 72.9729L37.5505 70.5292C38.0368 69.7542 39.5641 70.3683 38.9365 71.4714L36.8427 75.1516C36.4702 75.8063 36.3105 76.5762 36.5183 77.3303L37.7274 81.7171H36.3414V85.9273C36.3414 87.5344 34.336 87.3022 34.336 85.9273V82.0999C34.336 81.235 33.1284 81.2589 33.1284 82.0999Z" fill="white"/>
</svg>
