<svg width="112" height="112" viewBox="0 0 112 112" fill="none" xmlns="http://www.w3.org/2000/svg">
<path fill-rule="evenodd" clip-rule="evenodd" d="M0.625258 0H111.375C111.721 0 112 0.278411 112 0.624239V111.376C112 111.722 111.721 112 111.375 112H0.625258C0.278865 112 0 111.722 0 111.376V0.624239C0 0.278411 0.278865 0 0.625258 0Z" fill="#279B48"/>
<path d="M37.3075 18.4574C37.091 18.7956 36.8134 19.0587 36.4746 19.2466C36.1358 19.4346 35.764 19.5285 35.3593 19.5285C35.0017 19.5285 34.6534 19.444 34.3146 19.2748C33.9852 19.1057 33.7264 18.899 33.5382 18.6547C33.3594 18.401 33.237 18.1473 33.1711 17.8936C33.1147 17.6399 33.0864 17.3533 33.0864 17.0338V12.3123C33.0864 12.0774 33.1099 11.8425 33.157 11.6076C33.2229 11.3727 33.397 11.0391 33.6793 10.6069C33.9711 10.1464 34.5452 9.91624 35.4016 9.91624C35.7781 9.91624 36.131 10.0055 36.4604 10.184C36.7898 10.3626 37.0393 10.5834 37.2087 10.8465C37.3875 11.1002 37.5004 11.3445 37.5475 11.5794C37.6039 11.8049 37.6322 12.0492 37.6322 12.3123V12.7069H36.291V12.3123C36.291 12.2371 36.2863 12.1713 36.2769 12.115C36.2769 12.0492 36.2722 11.9928 36.2627 11.9458C36.2533 11.8613 36.1827 11.725 36.051 11.5371C35.9192 11.3492 35.6981 11.2552 35.3875 11.2552C35.0204 11.2552 34.7757 11.3539 34.6534 11.5512C34.5404 11.7485 34.4746 11.8941 34.4557 11.9881C34.4369 12.0821 34.4275 12.1901 34.4275 12.3123V17.0338C34.4275 17.1278 34.4275 17.2077 34.4275 17.2735C34.4275 17.3392 34.4322 17.3956 34.4417 17.4426C34.4511 17.5178 34.5217 17.6634 34.6534 17.8795C34.7758 18.0768 35.0158 18.1755 35.3734 18.1755C35.7405 18.1755 35.9757 18.0768 36.0793 17.8795C36.1357 17.7761 36.1781 17.6916 36.2063 17.6258C36.2346 17.5506 36.2534 17.4849 36.2628 17.4285C36.2816 17.3721 36.291 17.3157 36.291 17.2593C36.291 17.1936 36.291 17.1184 36.291 17.0338V15.3848H35.204V14.2009H37.6322V17.0338C37.6322 17.2312 37.6275 17.4003 37.618 17.5412C37.6086 17.6728 37.5898 17.7902 37.5615 17.8936C37.5333 17.997 37.4957 18.0956 37.4486 18.1896C37.4109 18.2741 37.3639 18.3634 37.3074 18.4574H37.3075Z" fill="white"/>
<path d="M39.1257 10.8888C39.3422 10.5881 39.6151 10.3532 39.9445 10.184C40.2833 10.0055 40.6315 9.91624 40.9892 9.91624C41.3374 9.91624 41.6621 9.98671 41.9633 10.1277C42.2738 10.2686 42.5327 10.4612 42.7397 10.7055C42.9468 10.9498 43.0879 11.2035 43.1632 11.4666C43.2385 11.7203 43.2762 11.9975 43.2762 12.2982V17.1043C43.2762 17.3862 43.248 17.6352 43.1915 17.8513C43.1444 18.0674 43.0315 18.307 42.8527 18.5701C42.6833 18.8332 42.4338 19.0587 42.1044 19.2466C41.7844 19.4346 41.4268 19.5285 41.0315 19.5285C40.8056 19.5285 40.5892 19.5003 40.3821 19.444C40.1751 19.3782 39.9821 19.2936 39.8033 19.1903C39.6245 19.0869 39.4645 18.9695 39.3234 18.8379C39.1916 18.7064 39.0881 18.5701 39.0128 18.4292C38.8716 18.1379 38.7869 17.903 38.7587 17.7245C38.7304 17.5459 38.7163 17.3392 38.7163 17.1043V12.2982C38.7163 12.0163 38.7445 11.7673 38.801 11.5512C38.8669 11.3257 38.9751 11.1049 39.1257 10.8888ZM41.7515 11.6357C41.5727 11.3726 41.328 11.2411 41.0174 11.2411C40.8574 11.2411 40.6974 11.2881 40.5374 11.382C40.3868 11.4666 40.2786 11.5653 40.2127 11.678C40.1563 11.7908 40.1186 11.9035 40.0998 12.0163C40.081 12.129 40.0716 12.223 40.0716 12.2982V17.1043C40.0716 17.1513 40.0716 17.203 40.0716 17.2593C40.0716 17.3063 40.0763 17.358 40.0857 17.4144C40.0952 17.5084 40.1704 17.6634 40.3116 17.8795C40.4528 18.0768 40.6881 18.1755 41.0175 18.1755C41.1869 18.1755 41.3375 18.1379 41.4692 18.0627C41.6104 17.9782 41.7092 17.8842 41.7657 17.7808C41.8316 17.6681 41.8739 17.5647 41.8927 17.4708C41.9115 17.3768 41.9209 17.2547 41.9209 17.1043V12.2982C41.9209 12.1103 41.9115 11.9787 41.8927 11.9035C41.8833 11.8284 41.8362 11.7391 41.7516 11.6357H41.7515Z" fill="white"/>
<path d="M44.8366 10.8888C45.0531 10.5881 45.326 10.3532 45.6554 10.184C45.9943 10.0055 46.3425 9.91624 46.7001 9.91624C47.0484 9.91624 47.373 9.98671 47.6742 10.1277C47.9848 10.2686 48.2436 10.4612 48.4507 10.7055C48.6577 10.9498 48.7989 11.2035 48.8742 11.4666C48.9495 11.7203 48.9871 11.9975 48.9871 12.2982V17.1043C48.9871 17.3862 48.9589 17.6352 48.9024 17.8513C48.8554 18.0674 48.7424 18.307 48.5636 18.5701C48.3942 18.8332 48.1448 19.0587 47.8154 19.2466C47.4954 19.4346 47.1378 19.5285 46.7425 19.5285C46.5166 19.5285 46.3001 19.5003 46.0931 19.444C45.886 19.3782 45.6931 19.2936 45.5143 19.1903C45.3354 19.0869 45.1755 18.9695 45.0343 18.8379C44.9025 18.7064 44.799 18.5701 44.7237 18.4292C44.5825 18.1379 44.4978 17.903 44.4696 17.7245C44.4414 17.5459 44.4272 17.3392 44.4272 17.1043V12.2982C44.4272 12.0163 44.4555 11.7673 44.5119 11.5512C44.5778 11.3257 44.6861 11.1049 44.8366 10.8888ZM47.4625 11.6357C47.2836 11.3726 47.0389 11.2411 46.7284 11.2411C46.5684 11.2411 46.4084 11.2881 46.2484 11.382C46.0978 11.4666 45.9896 11.5653 45.9237 11.678C45.8672 11.7908 45.8295 11.9035 45.8107 12.0163C45.7919 12.129 45.7825 12.223 45.7825 12.2982V17.1043C45.7825 17.1513 45.7825 17.203 45.7825 17.2593C45.7825 17.3063 45.7872 17.358 45.7967 17.4144C45.8061 17.5084 45.8814 17.6634 46.0226 17.8795C46.1637 18.0768 46.399 18.1755 46.7284 18.1755C46.8978 18.1755 47.0484 18.1379 47.1801 18.0627C47.3213 17.9782 47.4201 17.8842 47.4766 17.7808C47.5425 17.6681 47.5849 17.5647 47.6037 17.4708C47.6225 17.3768 47.6319 17.2547 47.6319 17.1043V12.2982C47.6319 12.1103 47.6225 11.9787 47.6037 11.9035C47.5943 11.8284 47.5472 11.7391 47.4625 11.6357H47.4625Z" fill="white"/>
<path d="M52.3831 10.0016C52.9949 10.0016 53.5172 10.2177 53.9502 10.6499C54.3925 11.0728 54.6137 11.5896 54.6137 12.2003V17.1051C54.6137 17.8004 54.4019 18.3642 53.9784 18.7964C53.5549 19.2287 53.009 19.4448 52.3408 19.4448H50.2373V10.0016H52.3831ZM53.2725 17.1051V12.2003C53.2725 11.9372 53.1737 11.7164 52.9761 11.5379C52.7878 11.3594 52.5573 11.2701 52.2843 11.2701H51.5785V18.1904H52.242C52.929 18.1904 53.2725 17.8286 53.2725 17.1051Z" fill="white"/>
<path d="M57.1987 19.4448V10.0016H58.5399V14.0326H60.2622V10.0016H61.6033V19.4448H60.2622V15.2306H58.5399V19.4448H57.1987Z" fill="white"/>
<path d="M66.9096 18.0917V19.4448H62.8579V10.0016H66.9096V11.2419H64.1991V14.0326H66.5708V15.3152H64.1991V18.0917H66.9096Z" fill="white"/>
<path d="M67.1108 19.4448L69.2284 10.0016H70.4002L72.5178 19.4448H71.0637L70.6825 17.4152H68.932L68.5367 19.4448H67.1108ZM69.172 16.1608H70.4425L69.8072 12.7218L69.172 16.1608Z" fill="white"/>
<path d="M77.2592 19.4448H73.2217V10.0016H74.5769V18.0917H77.2592V19.4448Z" fill="white"/>
<path d="M77.8716 19.4448V11.256H76.2764V10.0016H80.8363V11.256H79.2128V19.4448H77.8716Z" fill="white"/>
<path d="M81.5615 19.4448V10.0016H82.9027V14.0326H84.625V10.0016H85.9661V19.4448H84.625V15.2306H82.9027V19.4448H81.5615Z" fill="white"/>
<path d="M32.4653 32.4662L34.5829 23.0231H35.7547L37.8722 32.4662H36.4182L36.037 30.4367H34.2865L33.8912 32.4662H32.4653ZM34.5264 29.1823H35.797L35.1617 25.7433L34.5264 29.1823Z" fill="white"/>
<path d="M42.0207 32.4662L39.9173 26.7299V32.4662H38.562V23.0231H39.8467L41.936 28.7453V23.0231H43.2913V32.4662H42.0207Z" fill="white"/>
<path d="M46.9119 23.0231C47.5237 23.0231 48.046 23.2392 48.479 23.6714C48.9213 24.0942 49.1425 24.611 49.1425 25.2218V30.1266C49.1425 30.8219 48.9307 31.3857 48.5072 31.8179C48.0837 32.2501 47.5378 32.4662 46.8696 32.4662H44.7661V23.0231H46.9119ZM47.8013 30.1266V25.2218C47.8013 24.9587 47.7025 24.7379 47.5049 24.5593C47.3166 24.3808 47.0861 24.2916 46.8131 24.2916H46.1072V31.2118H46.7708C47.4578 31.2118 47.8013 30.8501 47.8013 30.1266Z" fill="white"/>
<path d="M56.1201 32.4662L55.0048 26.7158L53.9178 32.4662H52.6614L51.292 23.0231H52.732L53.4096 28.7312L54.4966 23.0231H55.499L56.6142 28.7312L57.2918 23.0231H58.7177L57.3907 32.4662H56.1201Z" fill="white"/>
<path d="M63.4687 31.1132V32.4662H59.417V23.0231H63.4687V24.2634H60.7581V27.054H63.1298V28.3366H60.7581V31.1132H63.4687Z" fill="white"/>
<path d="M68.0141 32.4662H63.9766V23.0231H65.3318V31.1132H68.0141V32.4662Z" fill="white"/>
<path d="M72.4462 32.4662H68.4087V23.0231H69.764V31.1132H72.4462V32.4662Z" fill="white"/>
<path d="M76.8741 23.0231C77.1658 23.0231 77.4388 23.0842 77.6929 23.2063C77.9752 23.3378 78.2623 23.5493 78.554 23.8405C78.8646 24.1412 79.0199 24.611 79.0199 25.25V25.9688C79.0199 26.6923 78.7328 27.1997 78.1587 27.491C78.7328 27.8292 79.0199 28.3554 79.0199 29.0695V30.1689C79.0199 30.836 78.8034 31.3857 78.3705 31.8179C77.947 32.2501 77.4011 32.4662 76.7329 32.4662H74.6436V23.0231H76.8741ZM77.6788 25.8278V25.25C77.6788 24.9587 77.5941 24.7285 77.4247 24.5593C77.2553 24.3808 77.0294 24.2916 76.747 24.2916H75.9847V26.899H76.7894C77.1 26.899 77.3258 26.805 77.467 26.6171C77.6082 26.4198 77.6788 26.1567 77.6788 25.8278ZM77.6788 30.1689V29.0695C77.6788 28.7688 77.5941 28.5339 77.4247 28.3648C77.2647 28.1863 77.0388 28.097 76.747 28.097H75.9847V31.1273H76.7611C77.0341 31.1273 77.2553 31.038 77.4247 30.8595C77.5941 30.6716 77.6788 30.4414 77.6788 30.1689Z" fill="white"/>
<path d="M84.0824 31.1132V32.4662H80.0308V23.0231H84.0824V24.2634H81.3719V27.054H83.7436V28.3366H81.3719V31.1132H84.0824Z" fill="white"/>
<path d="M84.6831 32.4662V23.0231H86.0243V32.4662H84.6831Z" fill="white"/>
<path d="M90.6341 32.4662L88.5306 26.7299V32.4662H87.1753V23.0231H88.46L90.5493 28.7453V23.0231H91.9046V32.4662H90.6341Z" fill="white"/>
<path d="M96.8597 31.4798C96.6433 31.818 96.3656 32.0811 96.0268 32.2691C95.688 32.457 95.3163 32.5509 94.9116 32.5509C94.5539 32.5509 94.2057 32.4664 93.8669 32.2972C93.5375 32.1281 93.2787 31.9214 93.0904 31.6771C92.9116 31.4234 92.7893 31.1697 92.7234 30.916C92.6669 30.6623 92.6387 30.3757 92.6387 30.0562V25.3347C92.6387 25.0998 92.6622 24.8649 92.7092 24.63C92.7751 24.3951 92.9492 24.0615 93.2316 23.6293C93.5233 23.1689 94.0974 22.9386 94.9539 22.9386C95.3304 22.9386 95.6833 23.0279 96.0127 23.2064C96.3421 23.385 96.5915 23.6058 96.7609 23.8689C96.9397 24.1226 97.0527 24.3669 97.0997 24.6018C97.1562 24.8273 97.1844 25.0716 97.1844 25.3347V25.7293H95.8433V25.3347C95.8433 25.2595 95.8386 25.1937 95.8291 25.1374C95.8291 25.0716 95.8244 25.0152 95.815 24.9682C95.8056 24.8837 95.735 24.7474 95.6032 24.5595C95.4715 24.3716 95.2503 24.2776 94.9397 24.2776C94.5727 24.2776 94.328 24.3763 94.2056 24.5736C94.0927 24.7709 94.0268 24.9166 94.008 25.0105C93.9892 25.1045 93.9798 25.2125 93.9798 25.3347V30.0562C93.9798 30.1502 93.9798 30.2301 93.9798 30.2959C93.9798 30.3616 93.9845 30.418 93.9939 30.465C94.0033 30.5402 94.0739 30.6858 94.2057 30.9019C94.328 31.0992 94.568 31.1979 94.9256 31.1979C95.2927 31.1979 95.528 31.0992 95.6315 30.9019C95.688 30.7986 95.7303 30.714 95.7586 30.6482C95.7868 30.5731 95.8056 30.5073 95.8151 30.4509C95.8339 30.3945 95.8433 30.3381 95.8433 30.2818C95.8433 30.216 95.8433 30.1408 95.8433 30.0562V28.4072H94.7562V27.2233H97.1844V30.0562C97.1844 30.2536 97.1797 30.4227 97.1703 30.5637C97.1608 30.6952 97.142 30.8126 97.1138 30.916C97.0855 31.0194 97.0479 31.118 97.0008 31.212C96.9632 31.2965 96.9161 31.3858 96.8597 31.4798H96.8597Z" fill="white"/>
<path d="M22.1647 26.8427V27.2474C22.1647 27.4048 22.1534 27.5847 22.1309 27.787C22.1309 27.9669 22.0971 28.2367 22.0296 28.5964C21.7143 29.6756 21.1175 30.5525 20.2392 31.227C19.3834 31.9015 18.3813 32.2388 17.2327 32.2388C16.3319 32.2388 15.4761 31.969 14.6654 31.4294C13.8546 30.8673 13.3367 30.3164 13.1115 29.7768C12.9764 29.4845 12.8637 29.226 12.7737 29.0011C12.7061 28.7763 12.6498 28.5627 12.6048 28.3604C12.5597 28.158 12.526 27.9444 12.5034 27.7196C12.5034 27.4722 12.5034 27.18 12.5034 26.8427V25.5274H15.7464V27.3823C15.7914 27.6746 15.9153 28.0006 16.118 28.3604C16.3432 28.7651 16.7485 28.9674 17.3341 28.9674C17.9196 28.9674 18.3362 28.7651 18.5839 28.3604C18.8317 27.9557 18.9555 27.4498 18.9555 26.8427V23.369C18.933 22.9418 18.8429 22.6158 18.6853 22.3909C18.5502 22.1661 18.3812 22.0087 18.1786 21.9188C17.9759 21.8063 17.7619 21.7501 17.5367 21.7501C17.3115 21.7276 17.1089 21.7164 16.9287 21.7164H16.3544V18.8497H16.9287C18.2799 18.8497 18.9555 18.2202 18.9555 16.9611V14.263C18.9555 13.9932 18.933 13.7684 18.888 13.5885C18.888 13.5211 18.8542 13.4199 18.7866 13.285C18.7191 13.1501 18.6177 13.0152 18.4826 12.8803C18.37 12.7454 18.2236 12.633 18.0435 12.543C17.8633 12.4531 17.6494 12.4081 17.4016 12.4081C16.8386 12.4081 16.422 12.588 16.1518 12.9477C15.8815 13.285 15.7464 13.7234 15.7464 14.263V15.9156H12.5034V14.263C12.5034 12.8466 12.9651 11.6549 13.8885 10.6881C14.7893 9.72133 15.9603 9.23793 17.4016 9.23793C18.1899 9.23793 18.9443 9.44028 19.665 9.84499C20.4081 10.2497 20.9486 10.7218 21.2864 11.2615C21.6467 11.8011 21.8832 12.307 21.9958 12.7791C22.1084 13.2513 22.1647 13.7459 22.1647 14.263V16.8936C22.1647 18.3551 21.5229 19.468 20.2392 20.2325C20.9599 20.7496 21.4553 21.2667 21.7256 21.7838C22.0183 22.2785 22.1647 22.953 22.1647 23.8074V26.8427Z" fill="white"/>
<path d="M20.3643 73.4429H38.8813L45.3873 59.203L48.6403 80.9375L56.3975 67.0307L61.0684 93.4287L76.0823 43.9638L83.0053 58.2037" stroke="white" stroke-width="3.4" stroke-linecap="round" stroke-linejoin="round"/>
<path fill-rule="evenodd" clip-rule="evenodd" d="M85.3748 81.5113C85.3748 81.5113 90.4716 76.3345 93.0422 73.7681C93.8324 72.9791 94.4577 71.7703 94.4577 70.3234C94.4577 67.7708 93.355 64.3761 89.5624 64.3761C87.4034 64.3761 85.6006 66.4527 85.4043 66.6726C85.1093 67.0032 84.7673 66.987 84.5192 66.6726C84.3367 66.4412 82.5202 64.3761 80.3611 64.3761C76.5686 64.3761 75.4658 67.7708 75.4658 70.3234C75.4658 71.7703 76.0911 72.9791 76.8813 73.7681C79.4519 76.3345 84.5487 81.5113 84.5487 81.5113C84.829 81.8085 85.0503 81.814 85.3748 81.5113Z" fill="white"/>
</svg>
