<svg width="112" height="112" viewBox="0 0 112 112" fill="none" xmlns="http://www.w3.org/2000/svg">
<path fill-rule="evenodd" clip-rule="evenodd" d="M0.625281 0H111.375C111.721 0 112 0.278411 112 0.624239V111.376C112 111.722 111.721 112 111.375 112H0.625281C0.278888 112 0 111.722 0 111.376V0.624239C0 0.278411 0.278888 0 0.625281 0Z" fill="#EF402B"/>
<path d="M37.5023 18.4574C37.2858 18.7957 37.0082 19.0588 36.6694 19.2467C36.3306 19.4346 35.9588 19.5286 35.5541 19.5286C35.1965 19.5286 34.8482 19.444 34.5094 19.2749C34.18 19.1058 33.9212 18.899 33.733 18.6547C33.5541 18.401 33.4318 18.1473 33.366 17.8936C33.3095 17.64 33.2812 17.3534 33.2812 17.0339V12.3123C33.2812 12.0774 33.3047 11.8425 33.3518 11.6076C33.4177 11.3727 33.5918 11.0391 33.8741 10.6069C34.1659 10.1465 34.74 9.91629 35.5964 9.91629C35.9729 9.91629 36.3258 10.0056 36.6552 10.1841C36.9846 10.3626 37.2341 10.5834 37.4035 10.8465C37.5823 11.1002 37.6952 11.3445 37.7423 11.5794C37.7987 11.8049 37.827 12.0492 37.827 12.3123V12.707H36.4858V12.3123C36.4858 12.2372 36.4811 12.1714 36.4717 12.115C36.4717 12.0492 36.467 11.9928 36.4576 11.9459C36.4481 11.8613 36.3775 11.7251 36.2458 11.5371C36.114 11.3492 35.8929 11.2552 35.5823 11.2552C35.2152 11.2552 34.9705 11.3539 34.8482 11.5512C34.7353 11.7485 34.6694 11.8942 34.6505 11.9881C34.6317 12.0821 34.6223 12.1902 34.6223 12.3123V17.0339C34.6223 17.1279 34.6223 17.2077 34.6223 17.2735C34.6223 17.3393 34.627 17.3956 34.6365 17.4426C34.6459 17.5178 34.7165 17.6634 34.8482 17.8795C34.9706 18.0769 35.2106 18.1755 35.5682 18.1755C35.9352 18.1755 36.1705 18.0769 36.2741 17.8795C36.3305 17.7762 36.3729 17.6916 36.4011 17.6259C36.4294 17.5507 36.4482 17.4849 36.4576 17.4285C36.4764 17.3722 36.4859 17.3158 36.4859 17.2594C36.4859 17.1936 36.4859 17.1185 36.4859 17.0339V15.3849H35.3988V14.2009H37.827V17.0339C37.827 17.2312 37.8222 17.4003 37.8128 17.5413C37.8034 17.6728 37.7846 17.7903 37.7564 17.8936C37.7281 17.997 37.6905 18.0957 37.6434 18.1896C37.6057 18.2742 37.5587 18.3634 37.5022 18.4574H37.5023Z" fill="white"/>
<path d="M43.2221 18.0917V19.4448H39.1704V10.0016H43.2221V11.2419H40.5116V14.0326H42.8833V15.3151H40.5116V18.0917H43.2221Z" fill="white"/>
<path d="M47.175 19.4448L45.0716 13.7084V19.4448H43.7163V10.0016H45.001L47.0903 15.7239V10.0016H48.4456V19.4448H47.175Z" fill="white"/>
<path d="M51.5316 10.0016C52.1433 10.0016 52.6656 10.2177 53.0986 10.6499C53.5409 11.0728 53.7621 11.5896 53.7621 12.2003V17.1051C53.7621 17.8004 53.5503 18.3642 53.1268 18.7964C52.7033 19.2287 52.1574 19.4448 51.4892 19.4448H49.3857V10.0016H51.5316ZM52.4209 17.1051V12.2003C52.4209 11.9372 52.3221 11.7164 52.1245 11.5379C51.9363 11.3594 51.7057 11.2701 51.4327 11.2701H50.7269V18.1904H51.3904C52.0774 18.1904 52.4209 17.8286 52.4209 17.1051Z" fill="white"/>
<path d="M58.7445 18.0917V19.4448H54.6929V10.0016H58.7445V11.2419H56.034V14.0326H58.4057V15.3151H56.034V18.0917H58.7445Z" fill="white"/>
<path d="M59.4385 19.4448V10.0016H61.8102C62.4313 10.0016 62.9537 10.2177 63.3772 10.6499C63.8101 11.0822 64.0266 11.613 64.0266 12.2426V13.1164C64.0266 13.9903 63.6548 14.6574 62.9113 15.1178L64.3513 19.4448H62.9113L61.6408 15.3997H60.7937V19.4448H59.4385ZM62.4455 13.9057C62.5302 13.8024 62.5866 13.6849 62.6149 13.5534C62.6525 13.4218 62.6714 13.2762 62.6714 13.1164V12.2426C62.6714 11.9513 62.5913 11.7164 62.4313 11.5379C62.2713 11.35 62.0455 11.256 61.7537 11.256H60.7938V14.2017H61.7396C62.022 14.2017 62.2572 14.103 62.4455 13.9057Z" fill="white"/>
<path d="M37.4325 31.1132V32.4662H33.3809V23.0231H37.4325V24.2634H34.722V27.054H37.0937V28.3366H34.722V31.1132H37.4325Z" fill="white"/>
<path d="M38.47 31.7335C38.2536 31.4986 38.1077 31.2496 38.0324 30.9865C37.9665 30.7234 37.9336 30.4133 37.9336 30.0562V25.3629C37.9336 24.677 38.15 24.1038 38.583 23.6434C39.0253 23.1736 39.5806 22.9386 40.2488 22.9386C40.8512 22.9386 41.3829 23.1595 41.8441 23.6011C42.2958 24.0427 42.5217 24.5689 42.5217 25.1796V30.0562C42.5217 30.3287 42.5076 30.5308 42.4794 30.6623C42.4606 30.7939 42.4229 30.9254 42.3664 31.057L43.2558 31.804L42.5076 32.706L41.6605 32.0295C41.2464 32.3677 40.7476 32.5368 40.1641 32.5368C39.8535 32.5368 39.5429 32.4617 39.2323 32.3113C38.9312 32.161 38.6771 31.9684 38.47 31.7335ZM40.7147 29.7039L41.1664 30.0562V25.3629C41.1664 25.0622 41.0817 24.8085 40.9123 24.6018C40.7429 24.3857 40.5076 24.2776 40.2065 24.2776C40.0182 24.2776 39.8535 24.3246 39.7124 24.4186C39.5712 24.5125 39.4676 24.6253 39.4018 24.7568C39.3453 24.8884 39.3124 24.9917 39.303 25.0669C39.2935 25.1327 39.2888 25.2313 39.2888 25.3629V30.0562V30.1549C39.2888 30.4274 39.3641 30.6717 39.5147 30.8878C39.6747 31.0945 39.9194 31.2026 40.2488 31.212C40.3429 31.212 40.4558 31.1838 40.5876 31.1274L39.9664 30.6059L40.7147 29.7039Z" fill="white"/>
<path d="M47.9168 31.4796C47.7098 31.7991 47.4415 32.0575 47.1121 32.2548C46.7921 32.4521 46.4345 32.5508 46.0392 32.5508C45.8416 32.5508 45.6439 32.5226 45.4463 32.4662C45.2581 32.4099 45.0792 32.3394 44.9098 32.2548C44.7404 32.1609 44.5898 32.0575 44.4581 31.9447C44.3263 31.8226 44.2275 31.6957 44.1616 31.5642C44.0204 31.3011 43.9263 31.0709 43.8793 30.8736C43.8416 30.6763 43.8228 30.4648 43.8228 30.2393V23.0231H45.178V30.2393C45.178 30.3051 45.178 30.3662 45.178 30.4226C45.1874 30.4695 45.1968 30.5165 45.2062 30.5635C45.2156 30.6387 45.2862 30.7702 45.418 30.9581C45.5403 31.1273 45.7521 31.2118 46.0532 31.2118C46.3262 31.2118 46.5285 31.1132 46.6603 30.9159C46.8015 30.7091 46.8721 30.4836 46.8721 30.2393V23.0231H48.2273V30.2393C48.2273 30.4648 48.2038 30.681 48.1567 30.8877C48.1097 31.0944 48.0297 31.2917 47.9168 31.4796H47.9168Z" fill="white"/>
<path d="M48.521 32.4662L50.6386 23.0231H51.8103L53.9279 32.4662H52.4738L52.0927 30.4367H50.3421L49.9469 32.4662H48.521ZM50.5821 29.1823H51.8527L51.2174 25.7433L50.5821 29.1823Z" fill="white"/>
<path d="M58.6694 32.4662H54.6318V23.0231H55.9871V31.1132H58.6694V32.4662Z" fill="white"/>
<path d="M59.0493 32.4662V23.0231H60.3904V32.4662H59.0493Z" fill="white"/>
<path d="M62.7349 32.4662V24.2775H61.1396V23.0231H65.6995V24.2775H64.076V32.4662H62.7349Z" fill="white"/>
<path d="M67.6834 32.4662V28.4071L65.8481 23.0231H67.2599L68.361 26.7158L69.4763 23.0231H70.9021L69.0245 28.4071V32.4662H67.6834Z" fill="white"/>
<path d="M18.2715 17.5007C18.8345 17.5007 19.3975 17.6581 19.9605 17.9729C20.5461 18.2877 20.974 18.6587 21.2442 19.0859C21.537 19.513 21.7284 19.9627 21.8185 20.4349C21.9311 20.8845 21.9874 21.3679 21.9874 21.8851V26.9439C21.9874 27.4386 21.9649 27.8657 21.9198 28.2255C21.8973 28.5627 21.7734 29.0349 21.5483 29.642C21.3231 30.249 20.7713 30.8336 19.893 31.3957C19.0598 31.9578 18.1364 32.2388 17.123 32.2388C16.3573 32.2388 15.6254 32.059 14.9273 31.6992C14.2291 31.317 13.6886 30.8561 13.3058 30.3165C12.9229 29.7769 12.6639 29.226 12.5288 28.6639C12.3937 28.1018 12.3262 27.5285 12.3262 26.9439V26.3706H15.6367V27.6184C15.6367 27.7308 15.6704 27.8657 15.738 28.0231C15.8055 28.1805 15.8956 28.3379 16.0082 28.4953C16.1208 28.6302 16.2785 28.7538 16.4812 28.8663C16.6838 28.9562 16.9203 29.0012 17.1905 29.0012C17.7986 29.0012 18.204 28.8325 18.4067 28.4953C18.6094 28.158 18.7219 27.8995 18.7445 27.7196C18.767 27.5172 18.7783 27.3036 18.7783 27.0788V22.3235C18.7783 22.2111 18.7783 22.1099 18.7783 22.02C18.7783 21.9076 18.767 21.7951 18.7445 21.6827C18.7445 21.5703 18.7107 21.4354 18.6431 21.278C18.5981 21.1206 18.508 20.9745 18.3729 20.8396C18.2603 20.6822 18.1027 20.5585 17.9 20.4686C17.7198 20.3562 17.4946 20.3 17.2243 20.3C16.4361 20.3 15.9069 20.7047 15.6367 21.5141H12.7315V9.44034H21.9874V12.4419H15.6367V18.5125C16.4024 17.838 17.2807 17.5007 18.2716 17.5007H18.2715Z" fill="white"/>
<path fill-rule="evenodd" clip-rule="evenodd" d="M47.4692 62.403V66.8448H64.397V62.403H47.4692ZM47.4692 69.2928V73.944H64.397V69.2928H47.4692ZM67.49 42.6729V47.5025H73.2449L67.1148 53.624C63.905 51.1009 59.9402 49.7254 55.8548 49.7175C51.0123 49.7176 46.3682 51.6381 42.9441 55.0567C39.5199 58.4753 37.5963 63.1118 37.5962 67.9464C37.6015 72.366 39.2149 76.6331 42.1361 79.9538C45.0574 83.2745 49.0875 85.4226 53.4766 85.9983V91.347H47.7218V96.7179H53.4766V101.965H58.8149V96.7179H64.5284V91.347H58.8149V85.9127C63.0834 85.2125 66.9642 83.0222 69.7659 79.7318C72.5676 76.4415 74.1083 72.265 74.1134 67.9464C74.1053 64.1939 72.9374 60.5353 70.7692 57.4701L76.8328 51.4164V56.7047H81.7944V42.6729H67.49ZM55.8548 54.6917C59.3758 54.6919 62.7526 56.0884 65.2424 58.5741C67.7321 61.0598 69.1309 64.4311 69.1311 67.9464C69.1313 71.4619 67.7327 74.8336 65.2429 77.3196C62.7531 79.8056 59.3761 81.2023 55.8548 81.2025C54.1111 81.2026 52.3845 80.8598 50.7735 80.1937C49.1625 79.5275 47.6988 78.5511 46.4658 77.3201C45.2328 76.0891 44.2548 74.6277 43.5876 73.0194C42.9203 71.411 42.5769 69.6872 42.577 67.9464C42.5772 64.4308 43.9762 61.0593 46.4663 58.5736C48.9564 56.0879 52.3335 54.6915 55.8548 54.6917Z" fill="white"/>
</svg>
