<svg width="112" height="112" viewBox="0 0 112 112" fill="none" xmlns="http://www.w3.org/2000/svg">
<path fill-rule="evenodd" clip-rule="evenodd" d="M0.625258 0H111.375C111.721 0 112 0.278434 112 0.624262V111.376C112 111.722 111.721 112 111.375 112H0.625258C0.278858 112 0 111.722 0 111.376V0.624262C0 0.278434 0.278858 0 0.625258 0Z" fill="#007DBC"/>
<path d="M40.6284 19.2842H36.5908V9.84102H37.9461V17.9311H40.6284V19.2842Z" fill="white"/>
<path d="M41.0684 19.2842V9.84102H42.4095V19.2842H41.0684Z" fill="white"/>
<path d="M43.5576 19.2842V9.84102H47.5951V11.1095H44.8988V13.9425H47.2563V15.2109H44.8988V19.2842H43.5576Z" fill="white"/>
<path d="M52.1098 17.9311V19.2842H48.0581V9.84102H52.1098V11.0813H49.3993V13.872H51.771V15.1546H49.3993V17.9311H52.1098Z" fill="white"/>
<path d="M38.8072 22.8633C39.0989 22.8633 39.3719 22.9244 39.626 23.0466C39.9083 23.1781 40.1954 23.3895 40.4871 23.6808C40.7977 23.9815 40.953 24.4513 40.953 25.0902V25.8091C40.953 26.5326 40.666 27.0399 40.0918 27.3312C40.666 27.6695 40.953 28.1957 40.953 28.9098V30.0091C40.953 30.6762 40.7365 31.2259 40.3036 31.6582C39.8801 32.0904 39.3342 32.3065 38.666 32.3065H36.5767V22.8633H38.8072ZM39.6119 25.6681V25.0902C39.6119 24.7989 39.5272 24.5687 39.3578 24.3996C39.1884 24.2211 38.9625 24.1318 38.6801 24.1318H37.9178V26.7393H38.7225C39.0331 26.7393 39.2589 26.6453 39.4001 26.4574C39.5413 26.2601 39.6119 25.9969 39.6119 25.6681ZM39.6119 30.0091V28.9098C39.6119 28.6091 39.5272 28.3742 39.3578 28.2051C39.1978 28.0266 38.9719 27.9373 38.6801 27.9373H37.9178V30.9675H38.6942C38.9672 30.9675 39.1884 30.8783 39.3578 30.6997C39.5272 30.5118 39.6119 30.2816 39.6119 30.0091Z" fill="white"/>
<path d="M46.3358 30.9534V32.3065H42.2842V22.8633H46.3358V24.1036H43.6253V26.8943H45.997V28.1769H43.6253V30.9534H46.3358Z" fill="white"/>
<path d="M50.9189 32.3065H46.8813V22.8633H48.2366V30.9534H50.9189V32.3065Z" fill="white"/>
<path d="M51.4758 23.7513C51.6923 23.4507 51.9652 23.2157 52.2946 23.0466C52.6334 22.8681 52.9817 22.7788 53.3393 22.7788C53.6875 22.7788 54.0122 22.8493 54.3134 22.9902C54.624 23.1312 54.8828 23.3238 55.0898 23.5681C55.2969 23.8124 55.4381 24.0661 55.5134 24.3292C55.5886 24.5829 55.6263 24.8601 55.6263 25.1607V29.9669C55.6263 30.2488 55.598 30.4978 55.5416 30.7139C55.4945 30.93 55.3816 31.1696 55.2028 31.4327C55.0334 31.6958 54.784 31.9213 54.4546 32.1092C54.1346 32.2972 53.7769 32.3911 53.3816 32.3911C53.1558 32.3911 52.9393 32.3629 52.7322 32.3066C52.5252 32.2408 52.3322 32.1562 52.1534 32.0529C51.9746 31.9495 51.8146 31.8321 51.6735 31.7005C51.5417 31.569 51.4382 31.4327 51.3629 31.2917C51.2217 31.0005 51.137 30.7656 51.1088 30.5871C51.0805 30.4085 51.0664 30.2018 51.0664 29.9669V25.1607C51.0664 24.8789 51.0946 24.6299 51.1511 24.4138C51.217 24.1882 51.3252 23.9674 51.4758 23.7513ZM54.1016 24.4983C53.9228 24.2352 53.6781 24.1037 53.3675 24.1037C53.2075 24.1037 53.0475 24.1507 52.8875 24.2446C52.7369 24.3292 52.6287 24.4279 52.5628 24.5406C52.5064 24.6534 52.4687 24.7661 52.4499 24.8789C52.4311 24.9916 52.4217 25.0856 52.4217 25.1607V29.9669C52.4217 30.0139 52.4217 30.0655 52.4217 30.1219C52.4217 30.1689 52.4264 30.2206 52.4358 30.277C52.4453 30.3709 52.5205 30.526 52.6617 30.7421C52.8029 30.9394 53.0382 31.038 53.3676 31.038C53.537 31.038 53.6875 31.0005 53.8193 30.9253C53.9605 30.8408 54.0593 30.7468 54.1158 30.6434C54.1817 30.5307 54.224 30.4273 54.2428 30.3334C54.2616 30.2394 54.2711 30.1172 54.2711 29.9669V25.1607C54.2711 24.9728 54.2616 24.8413 54.2428 24.7661C54.2334 24.6909 54.1864 24.6017 54.1017 24.4983H54.1016Z" fill="white"/>
<path d="M61.1616 32.3065L60.0463 26.556L58.9593 32.3065H57.7029L56.3335 22.8633H57.7735L58.4511 28.5715L59.5381 22.8633H60.5405L61.6557 28.5715L62.3334 22.8633H63.7592L62.4322 32.3065H61.1616Z" fill="white"/>
<path d="M70.3486 32.3065L69.2334 26.556L68.1463 32.3065H66.8899L65.5205 22.8633H66.9605L67.6381 28.5715L68.7251 22.8633H69.7274L70.8427 28.5715L71.5203 22.8633H72.9462L71.6192 32.3065H70.3486Z" fill="white"/>
<path d="M72.6445 32.3065L74.7621 22.8633H75.9339L78.0515 32.3065H76.5974L76.2162 30.2769H74.4657L74.0704 32.3065H72.6445ZM74.7057 29.0225H75.9762L75.3409 25.5835L74.7057 29.0225Z" fill="white"/>
<path d="M79.1822 32.3065V24.1177H77.5869V22.8633H82.1468V24.1177H80.5233V32.3065H79.1822Z" fill="white"/>
<path d="M86.9433 30.9534V32.3065H82.8916V22.8633H86.9433V24.1036H84.2327V26.8943H86.6044V28.1769H84.2327V30.9534H86.9433Z" fill="white"/>
<path d="M87.4604 32.3065V22.8633H89.8322C90.4533 22.8633 90.9757 23.0795 91.3992 23.5117C91.8321 23.9439 92.0486 24.4748 92.0486 25.1043V25.9782C92.0486 26.852 91.6768 27.5191 90.9333 27.9795L92.3733 32.3065H90.9333L89.6628 28.2614H88.8157V32.3065H87.4604ZM90.4674 26.7675C90.5521 26.6641 90.6086 26.5467 90.6368 26.4151C90.6745 26.2836 90.6933 26.1379 90.6933 25.9782V25.1043C90.6933 24.813 90.6134 24.5781 90.4534 24.3996C90.2934 24.2117 90.0675 24.1177 89.7757 24.1177H88.8157V27.0634H89.7616C90.044 27.0634 90.2792 26.9648 90.4675 26.7675H90.4674Z" fill="white"/>
<path d="M11.0818 32.4241V13.2005L7.83887 15.6287V12.1887L11.0818 9.82791H14.291V32.4241H11.0818Z" fill="white"/>
<path d="M22.8471 32.4241V28.9841H16.395V25.9488L21.0905 9.82791H24.5024L19.6717 25.9488H22.8471V19.5072H26.0901V25.9488H27.6778V28.9841H26.0901V32.4241H22.8471Z" fill="white"/>
<path d="M62.5381 68.7472C54.898 68.9245 47.4072 72.953 39.9737 78.4567C36.7007 72.844 32.3848 68.8506 25.5112 68.8298C32.0808 78.5932 30.762 87.2894 25.5112 95.4527C32.3848 95.4318 36.7007 91.4385 39.9737 85.8258C54.8408 96.8331 69.9362 101.938 85.9976 82.142C77.9669 72.2442 70.1782 68.5699 62.5381 68.7472ZM69.9355 76.4481C70.4167 76.448 70.8933 76.5426 71.338 76.7264C71.7827 76.9103 72.1867 77.1798 72.527 77.5196C72.8673 77.8593 73.1373 78.2627 73.3214 78.7066C73.5056 79.1506 73.6003 79.6264 73.6002 80.1069C73.6 81.077 73.2138 82.0074 72.5265 82.6933C71.8392 83.3792 70.9072 83.7643 69.9355 83.7641C68.964 83.7639 68.0323 83.3786 67.3454 82.6927C66.6584 82.0069 66.2724 81.0768 66.2722 80.1069C66.272 79.1367 66.6579 78.2062 67.3449 77.5201C68.0318 76.8339 68.9637 76.4483 69.9355 76.4481ZM85.4332 56.0081L85.6969 59.0162C79.9938 62.9338 75.7581 61.3774 71.9497 58.2266C67.2435 61.6933 62.0615 62.7248 55.7545 58.001C51.1003 60.8457 46.3355 63.3282 39.2203 58.1138C35.5072 61.0051 31.7812 63.8531 25.8122 59.2043L25.6615 56.0457C31.1464 59.2524 35.462 57.4239 39.5593 54.1656C44.9954 57.8381 50.368 58.915 55.6038 54.3912C61.6763 59.9497 66.7775 57.5737 71.7614 54.2408C75.4133 56.5755 78.7773 59.568 85.4332 56.0081ZM85.4332 46.758L85.6969 49.7662C79.9938 53.6838 75.7581 52.1273 71.9497 48.9765C67.2435 52.4432 62.0615 53.4747 55.7545 48.7509C51.1003 51.5956 46.3355 54.0781 39.2203 48.8637C35.5072 51.755 31.7812 54.603 25.8122 49.9542L25.6615 46.7956C31.1464 50.0024 35.462 48.1738 39.5593 44.9155C44.9954 48.588 50.368 49.665 55.6038 45.1411C61.6763 50.6997 66.7775 48.3236 71.7614 44.9907C75.4133 47.3254 78.7773 50.3179 85.4332 46.758Z" fill="white"/>
</svg>
