<svg width="112" height="112" viewBox="0 0 112 112" fill="none" xmlns="http://www.w3.org/2000/svg">
<path fill-rule="evenodd" clip-rule="evenodd" d="M0.625235 0H111.375C111.721 0 112 0.278411 112 0.624239V111.376C112 111.722 111.721 112 111.375 112H0.625235C0.278842 112 0 111.722 0 111.376V0.624239C0 0.278411 0.278842 0 0.625235 0Z" fill="#00AED9"/>
<path d="M37.0854 17.062C37.0854 17.3627 37.0666 17.6211 37.0289 17.8372C37.0007 18.0533 36.9065 18.2882 36.7465 18.5419C36.6618 18.6735 36.5536 18.8003 36.4219 18.9225C36.2995 19.0352 36.1583 19.1386 35.9983 19.2326C35.8478 19.3171 35.6831 19.3876 35.5042 19.444C35.3254 19.5003 35.1513 19.5285 34.9819 19.5285C34.5584 19.5285 34.1725 19.4393 33.8243 19.2607C33.4854 19.0822 33.236 18.8567 33.076 18.5842C32.9161 18.3117 32.8125 18.058 32.7655 17.8231C32.7278 17.5882 32.709 17.3345 32.709 17.062V12.1995C32.709 11.9364 32.7325 11.7015 32.7796 11.4948C32.836 11.2787 32.949 11.0485 33.1184 10.8042C33.2878 10.5599 33.5278 10.3532 33.8383 10.184C34.1489 10.0055 34.4736 9.91624 34.8124 9.91624C35.4618 9.91624 36.003 10.1324 36.4359 10.5646C36.8689 10.9874 37.0853 11.5324 37.0853 12.1995V12.7069H35.7442V12.1995C35.7442 11.9364 35.6689 11.7156 35.5183 11.5371C35.3771 11.3586 35.1654 11.2693 34.883 11.2693C34.6195 11.2693 34.4124 11.3586 34.2618 11.5371C34.1207 11.7156 34.0501 11.9364 34.0501 12.1995V17.4285C34.0689 17.5694 34.1348 17.7292 34.2478 17.9077C34.3795 18.0956 34.596 18.1896 34.8971 18.1896C35.2171 18.1896 35.4289 18.105 35.5324 17.9359C35.6359 17.7668 35.6971 17.6446 35.7159 17.5694C35.7347 17.4849 35.7441 17.3721 35.7441 17.2312V16.752H37.0853L37.0854 17.062Z" fill="white"/>
<path d="M42.0913 19.4448H38.0537V10.0016H39.409V18.0917H42.0913V19.4448Z" fill="white"/>
<path d="M46.5765 18.0917V19.4448H42.5249V10.0016H46.5765V11.2419H43.866V14.0326H46.2377V15.3151H43.866V18.0917H46.5765Z" fill="white"/>
<path d="M46.8315 19.4448L48.9491 10.0016H50.1208L52.2384 19.4448H50.7843L50.4032 17.4152H48.6526L48.2574 19.4448H46.8315ZM48.8927 16.1608H50.1632L49.5279 12.7218L48.8927 16.1608Z" fill="white"/>
<path d="M56.28 19.4448L54.1765 13.7084V19.4448H52.8213V10.0016H54.1059L56.1953 15.7239V10.0016H57.5505V19.4448H56.28Z" fill="white"/>
<path d="M64.3769 19.4448L63.2616 13.6943L62.1746 19.4448H60.9182L59.5488 10.0016H60.9888L61.6664 15.7098L62.7534 10.0016H63.7558L64.8711 15.7098L65.5487 10.0016H66.9745L65.6475 19.4448H64.3769Z" fill="white"/>
<path d="M66.6333 19.4448L68.7509 10.0016H69.9226L72.0402 19.4448H70.5861L70.205 17.4152H68.4544L68.0592 19.4448H66.6333ZM68.6944 16.1608H69.965L69.3297 12.7218L68.6944 16.1608Z" fill="white"/>
<path d="M73.0689 19.4448V11.256H71.4736V10.0016H76.0335V11.256H74.41V19.4448H73.0689Z" fill="white"/>
<path d="M80.8636 18.0917V19.4448H76.812V10.0016H80.8636V11.2419H78.1531V14.0326H80.5248V15.3151H78.1531V18.0917H80.8636Z" fill="white"/>
<path d="M81.5571 19.4448V10.0016H83.9288C84.55 10.0016 85.0723 10.2177 85.4959 10.6499C85.9288 11.0822 86.1452 11.613 86.1452 12.2426V13.1164C86.1452 13.9903 85.7735 14.6574 85.03 15.1178L86.4699 19.4448H85.03L83.7594 15.3997H82.9124V19.4448H81.5571ZM84.5641 13.9057C84.6488 13.8024 84.7053 13.6849 84.7335 13.5534C84.7712 13.4218 84.79 13.2762 84.79 13.1164V12.2426C84.79 11.9513 84.71 11.7164 84.55 11.5379C84.39 11.35 84.1641 11.256 83.8724 11.256H82.9124V14.2017H83.8582C84.1406 14.2017 84.3759 14.103 84.5641 13.9057Z" fill="white"/>
<path d="M32.3945 32.4662L34.5121 23.0231H35.6838L37.8015 32.4662H36.3474L35.9662 30.4367H34.2157L33.8204 32.4662H32.3945ZM34.4557 29.1823H35.7262L35.0909 25.7433L34.4557 29.1823Z" fill="white"/>
<path d="M41.843 32.4662L39.7395 26.7299V32.4662H38.3843V23.0231H39.669L41.7583 28.7453V23.0231H43.1135V32.4662H41.843Z" fill="white"/>
<path d="M46.0926 23.0231C46.7044 23.0231 47.2267 23.2392 47.6596 23.6714C48.1019 24.0942 48.3231 24.611 48.3231 25.2218V30.1266C48.3231 30.8219 48.1114 31.3857 47.6878 31.8179C47.2643 32.2501 46.7185 32.4662 46.0502 32.4662H43.9468V23.0231H46.0926ZM46.982 30.1266V25.2218C46.982 24.9587 46.8832 24.7379 46.6855 24.5593C46.4973 24.3808 46.2667 24.2916 45.9938 24.2916H45.2879V31.2118H45.9514C46.6385 31.2118 46.982 30.8501 46.982 30.1266Z" fill="white"/>
<path d="M52.2844 30.1126C52.2844 30.2066 52.2844 30.2865 52.2844 30.3523C52.2844 30.418 52.2892 30.4744 52.2986 30.5214C52.3174 30.6153 52.388 30.7516 52.5103 30.9301C52.6421 31.118 52.8774 31.212 53.2162 31.212C53.4044 31.212 53.5785 31.1744 53.7385 31.0992C53.8985 31.0147 54.0162 30.9066 54.0915 30.7751C54.1479 30.6717 54.1809 30.5731 54.1903 30.4791C54.2091 30.3851 54.2185 30.3005 54.2185 30.2254V30.0985V29.4361V29.3093C54.2185 29.1025 54.1809 28.9428 54.1056 28.8301C54.0303 28.7079 53.8609 28.5717 53.5973 28.4213C53.4185 28.3274 53.0985 28.1958 52.6374 28.0267C52.1762 27.8576 51.7903 27.5898 51.4798 27.2233C51.1692 26.8569 51.0139 26.3589 51.0139 25.7293V25.3065C51.0139 24.6582 51.2303 24.1038 51.6632 23.6434C52.1056 23.1736 52.6421 22.9386 53.2727 22.9386C53.9315 22.9386 54.4773 23.1689 54.9102 23.6293C55.3526 24.0897 55.5738 24.6488 55.5738 25.3065V25.7293H54.2185V25.3065C54.2185 25.2407 54.2138 25.1796 54.2043 25.1233C54.2043 25.0669 54.1996 25.0152 54.1902 24.9682C54.1808 24.9213 54.1573 24.8649 54.1196 24.7991C54.082 24.7333 54.0302 24.6534 53.9644 24.5595C53.8326 24.3716 53.6114 24.2776 53.3009 24.2776C53.0279 24.2776 52.802 24.3763 52.6232 24.5736C52.4538 24.7709 52.3691 25.0152 52.3691 25.3065V25.7293V25.8562C52.3691 26.0441 52.3974 26.1944 52.4538 26.3072C52.5197 26.4106 52.6703 26.528 52.9055 26.6595C52.9808 26.6971 53.0938 26.7488 53.2444 26.8146C53.4043 26.871 53.5973 26.9414 53.8232 27.026C54.275 27.1763 54.6796 27.4441 55.0372 27.8294C55.3949 28.2146 55.5737 28.722 55.5737 29.3515V30.1126C55.5737 30.4415 55.5408 30.7187 55.4749 30.9442C55.4184 31.1697 55.2255 31.4986 54.8961 31.9308C54.5667 32.3442 54.0161 32.5509 53.2444 32.5509C52.4256 32.5509 51.8326 32.2879 51.4656 31.7617C51.0985 31.2261 50.915 30.6764 50.915 30.1126V29.7744H52.2844V30.1126Z" fill="white"/>
<path d="M55.8354 32.4662L57.953 23.0231H59.1248L61.2424 32.4662H59.7883L59.4071 30.4367H57.6566L57.2613 32.4662H55.8354ZM57.8966 29.1823H59.1671L58.5319 25.7433L57.8966 29.1823Z" fill="white"/>
<path d="M65.3908 32.4662L63.2874 26.7299V32.4662H61.9321V23.0231H63.2168L65.3061 28.7453V23.0231H66.6614V32.4662H65.3908Z" fill="white"/>
<path d="M67.5483 32.4662V23.0231H68.8895V32.4662H67.5483Z" fill="white"/>
<path d="M71.234 32.4662V24.2775H69.6387V23.0231H74.1986V24.2775H72.5751V32.4662H71.234Z" fill="white"/>
<path d="M73.7227 32.4662L75.8403 23.0231H77.012L79.1296 32.4662H77.6755L77.2944 30.4367H75.5438L75.1485 32.4662H73.7227ZM75.7838 29.1823H77.0543L76.4191 25.7433L75.7838 29.1823Z" fill="white"/>
<path d="M80.3184 32.4662V24.2775H78.7231V23.0231H83.283V24.2775H81.6595V32.4662H80.3184Z" fill="white"/>
<path d="M84.0083 32.4662V23.0231H85.3494V32.4662H84.0083Z" fill="white"/>
<path d="M86.864 23.9112C87.0804 23.6105 87.3534 23.3756 87.6828 23.2064C88.0216 23.0279 88.3699 22.9386 88.7275 22.9386C89.0757 22.9386 89.4004 23.0091 89.7016 23.1501C90.0121 23.291 90.271 23.4836 90.478 23.7279C90.6851 23.9722 90.8262 24.2259 90.9015 24.489C90.9768 24.7427 91.0145 25.0199 91.0145 25.3206V30.1267C91.0145 30.4086 90.9863 30.6576 90.9298 30.8737C90.8827 31.0898 90.7698 31.3295 90.591 31.5925C90.4216 31.8556 90.1722 32.0811 89.8428 32.2691C89.5228 32.457 89.1651 32.5509 88.7698 32.5509C88.544 32.5509 88.3275 32.5228 88.1205 32.4664C87.9134 32.4006 87.7205 32.316 87.5417 32.2127C87.3628 32.1093 87.2028 31.9919 87.0616 31.8603C86.9299 31.7288 86.8264 31.5925 86.7511 31.4516C86.6099 31.1603 86.5252 30.9254 86.497 30.7469C86.4687 30.5683 86.4546 30.3616 86.4546 30.1267V25.3206C86.4546 25.0387 86.4828 24.7897 86.5393 24.5736C86.6052 24.3481 86.7134 24.1273 86.864 23.9112ZM89.4898 24.6582C89.311 24.3951 89.0663 24.2635 88.7557 24.2635C88.5957 24.2635 88.4357 24.3105 88.2757 24.4045C88.1251 24.489 88.0169 24.5877 87.951 24.7004C87.8946 24.8132 87.8569 24.9259 87.8381 25.0387C87.8193 25.1515 87.8099 25.2454 87.8099 25.3206V30.1267C87.8099 30.1737 87.8099 30.2254 87.8099 30.2818C87.8099 30.3287 87.8146 30.3804 87.824 30.4368C87.8334 30.5308 87.9088 30.6858 88.0499 30.9019C88.1911 31.0992 88.4263 31.1979 88.7557 31.1979C88.9252 31.1979 89.0758 31.1603 89.2075 31.0851C89.3487 31.0006 89.4475 30.9066 89.504 30.8033C89.5699 30.6905 89.6122 30.5871 89.631 30.4932C89.6498 30.3992 89.6592 30.2771 89.6592 30.1267V25.3206C89.6592 25.1327 89.6498 25.0011 89.631 24.926C89.6216 24.8508 89.5746 24.7615 89.4899 24.6582H89.4898Z" fill="white"/>
<path d="M95.6164 32.4662L93.513 26.7299V32.4662H92.1577V23.0231H93.4424L95.5317 28.7453V23.0231H96.887V32.4662H95.6164Z" fill="white"/>
<path d="M21.4717 20.4686C21.6519 20.7834 21.7645 21.1094 21.8095 21.4466C21.8771 21.7839 21.9109 22.1998 21.9109 22.6945V27.0114C21.9109 27.5285 21.8545 28.0456 21.7419 28.5627C21.6293 29.0574 21.2915 29.7544 20.7285 30.6537C20.143 31.5756 19.0395 32.1039 17.418 32.2388C16.4046 32.2388 15.4813 32.0252 14.648 31.598C13.8373 31.1484 13.263 30.62 12.9252 30.0129C12.6099 29.3834 12.4072 28.855 12.3171 28.4278C12.2496 28.0006 12.2158 27.5285 12.2158 27.0114V23.4702C12.2158 22.9755 12.2271 22.627 12.2496 22.4247C12.2721 22.1998 12.351 21.9076 12.4861 21.5478L16.9789 9.44034H20.6272L16.9789 18.9172C17.3843 18.7598 17.8685 18.6811 18.4315 18.6811H18.7355C19.9741 18.861 20.8862 19.4568 21.4717 20.4686ZM18.3976 22.1886C18.0598 21.7389 17.6095 21.5141 17.0464 21.5141C16.551 21.5141 16.1681 21.694 15.8979 22.0537C15.6277 22.4134 15.4925 22.8856 15.4925 23.4702V27.0114C15.4925 27.4835 15.6051 27.9332 15.8303 28.3604C16.078 28.7651 16.4947 28.9674 17.0802 28.9674H17.2829C17.8684 28.9674 18.2513 28.7651 18.4314 28.3604C18.6116 27.9557 18.7017 27.506 18.7017 27.0114V23.4702C18.7017 23.1779 18.6792 22.9418 18.6342 22.7619C18.6116 22.5596 18.5328 22.3685 18.3977 22.1886H18.3976Z" fill="white"/>
<path d="M36.1703 45.1504C35.6339 45.1504 35.1097 45.6205 35.2264 46.3287L41.8321 86.4274C41.9176 86.9465 42.2474 87.4287 42.7759 87.4287H50.7967L51.3875 93.9646H47.9665L56.0759 102.062L64.1852 93.9646H60.7642L61.3551 87.4287H69.3758C69.9044 87.4287 70.2342 86.9465 70.3197 86.4274L76.9253 46.3287C77.042 45.6205 76.5178 45.1504 75.9815 45.1504H36.1703ZM37.3904 47.1486H74.7614L73.658 53.8482C69.3264 53.3477 62.832 58.8873 55.5352 55.227C46.5545 50.722 46.3599 55.5783 38.7109 55.168L37.3904 47.1486ZM56.0463 61.1672C59.5725 67.2646 62.5826 69.6133 62.5826 73.739C62.5826 76.4964 60.8395 80.0685 56.0463 80.0685C51.2532 80.0685 49.5101 76.4964 49.5101 73.739C49.5101 69.6133 52.5202 67.2646 56.0463 61.1672Z" fill="white"/>
</svg>
