<svg width="36" height="36" viewBox="0 0 36 36" fill="none" xmlns="http://www.w3.org/2000/svg">
<circle cx="18" cy="18" r="15" fill="#2BAEE0"/>
<path fill-rule="evenodd" clip-rule="evenodd" d="M18 16.5C18.8284 16.5 19.5 17.1716 19.5 18V24C19.5 24.8284 18.8284 25.5 18 25.5C17.1716 25.5 16.5 24.8284 16.5 24V18C16.5 17.1716 17.1716 16.5 18 16.5Z" fill="white"/>
<path fill-rule="evenodd" clip-rule="evenodd" d="M16.5 12C16.5 11.1716 17.1716 10.5 18 10.5H18.015C18.8434 10.5 19.515 11.1716 19.515 12C19.515 12.8284 18.8434 13.5 18.015 13.5H18C17.1716 13.5 16.5 12.8284 16.5 12Z" fill="white"/>
</svg>
