<svg width="36" height="36" viewBox="0 0 36 36" fill="none" xmlns="http://www.w3.org/2000/svg">
<circle cx="18" cy="18" r="15" fill="#FEBC2C"/>
<path fill-rule="evenodd" clip-rule="evenodd" d="M18.015 19.5C17.1866 19.5 16.515 18.8284 16.515 18L16.515 12C16.515 11.1716 17.1866 10.5 18.015 10.5C18.8434 10.5 19.515 11.1716 19.515 12L19.515 18C19.515 18.8284 18.8434 19.5 18.015 19.5Z" fill="white"/>
<path fill-rule="evenodd" clip-rule="evenodd" d="M19.515 24C19.515 24.8284 18.8434 25.5 18.015 25.5L18 25.5C17.1716 25.5 16.5 24.8284 16.5 24C16.5 23.1716 17.1716 22.5 18 22.5L18.015 22.5C18.8434 22.5 19.515 23.1716 19.515 24Z" fill="white"/>
</svg>
